<?xml version="1.0" standalone="no"?><!DOCTYPE svg PUBLIC "-//W3C//DTD SVG 1.1//EN" "http://www.w3.org/Graphics/SVG/1.1/DTD/svg11.dtd"><svg t="1748775760538" class="icon" viewBox="0 0 1024 1024" version="1.1" xmlns="http://www.w3.org/2000/svg" p-id="11698" xmlns:xlink="http://www.w3.org/1999/xlink" width="200" height="200"><path d="M986.17 721.802c-5.874 35.282-25.186 46.25-36.216 49.624L136.84 1022.044a21.308 21.308 0 0 1-16.25-1.5 21.392 21.392 0 0 1-10.406-12.562l-50.25-162.996c-3.468-11.25 2.844-23.156 14.094-26.624l813.144-250.618a42.532 42.532 0 0 1 12.844-1.938c32 0 63.998 34.124 79.686 84.936 7.656 24.878 9.936 50.126 6.468 71.06z" fill="#965353" p-id="11699"></path><path d="M80.312 838.736c22.5-6.938 51.998 23.906 65.874 68.938 13.874 44.998 6.874 87.058-15.624 93.996s-51.998-23.906-65.874-68.904-6.876-87.092 15.624-94.03z" fill="#EAAD7A" p-id="11700"></path><path d="M166.558 901.362c7.656 24.874 9.968 50.124 6.468 71.058-4.344 26.156-17.188 43.782-36.186 49.624a42.532 42.532 0 0 1-12.844 1.938c-32 0-64.03-34.124-79.684-84.936-7.656-24.874-9.968-50.124-6.468-71.06 4.344-26.156 17.186-43.782 36.186-49.624a43.33 43.33 0 0 1 12.842-1.938c32 0.002 64.03 34.124 79.686 84.938z m-42.28 79.964c0.688-0.218 4.688-3.844 6.688-15.876 2.406-14.342 0.5-33.124-5.156-51.528-11.092-36-31.25-54.876-38.936-54.876a0.654 0.654 0 0 0-0.282 0.062c-0.688 0.188-4.686 3.844-6.686 15.876-2.406 14.312-0.5 33.124 5.156 51.498 11.094 35.998 31.25 54.874 38.936 54.874a0.792 0.792 0 0 0 0.28-0.03zM789.428 753.99c-10.938 3.376-13.438 8.75-14.406 13.562-1.156 5.562-0.062 11.468 0.438 13.312l-0.062-0.25-40.75 12.592c-0.812-2.718-7.844-27.216 4.25-50.154 5.218-9.876 16.032-23.032 37.968-29.782 34.218-10.53 163.714-51.872 202.276-64.184 0.188 0.532 0.376 1.094 0.562 1.656 4.186 13.624 6.78 27.376 7.686 40.468-43.528 13.908-164.87 52.592-197.962 62.78z" fill="#7F4545" p-id="11701"></path><path d="M431.986 752.552l-40.748 12.624-0.062-0.25c0.532 1.812 1.594 7.75 0.468 13.282-1 4.812-3.5 10.186-14.406 13.56a773163.36 773163.36 0 0 0-244.43 75.404l12.594 40.718s203.68-62.844 244.366-75.406c21.938-6.75 32.748-19.936 37.966-29.78 12.096-22.932 5.096-47.402 4.252-50.152z" fill="#7F4545" p-id="11702"></path><path d="M964.078 844.986l-50.248 162.996c-3.468 11.25-15.406 17.562-26.656 14.062L74.03 771.428c-11-3.376-30.342-14.344-36.186-49.624-3.5-20.936-1.188-46.184 6.468-71.058 15.656-50.81 47.686-84.936 79.684-84.936 4.376 0 8.688 0.624 12.844 1.938l813.144 250.618a21.382 21.382 0 0 1 12.562 10.404 21.366 21.366 0 0 1 1.532 16.216z" fill="#A85D5D" p-id="11703"></path><path d="M280.93 746.052c4.28 10.938 6.374 24.468 6.218 40.124-0.282 24.53-6.03 47.028-6.25 47.996-0.094 0.312-0.218 0.624-0.312 0.938l-40.75-12.562c0.938-4.06 4.5-20.216 4.688-36.84 0.062-6.718-0.438-28.782-9.938-31.718-36.904-11.376-174.088-54.124-198.056-61.622 0.844-13.438 3.468-27.562 7.782-41.624 0.062-0.188 0.124-0.312 0.156-0.5 0.406 0.124 0.782 0.188 1.188 0.312 1.594 0.5 161.276 50.31 201.494 62.714 10.874 3.346 25.56 11.752 33.78 32.782zM646.778 791.77c40.716 12.532 244.396 75.404 244.396 75.404l-12.562 40.718-244.396-75.406c-18.376-5.624-40.406-22.874-41.094-72.684-0.312-24.656 4.812-47.31 5.032-48.248 0.124-0.5 0.25-1 0.406-1.5l40.812 12.56c-5.658 26.126-5.626 65.124 7.406 69.156z" fill="#965353" p-id="11704"></path><path d="M943.706 838.736c-22.5-6.938-52 23.938-65.876 68.938-13.876 44.998-6.876 87.058 15.624 93.996s52-23.906 65.874-68.904c13.876-44.998 6.876-87.092-15.622-94.03z" fill="#F4BE8E" p-id="11705"></path><path d="M949.984 818.364c19 5.874 31.844 23.466 36.186 49.624 3.468 20.938 1.188 46.188-6.466 71.06-15.688 50.81-47.686 84.936-79.686 84.936-4.376 0-8.688-0.624-12.844-1.938-19-5.844-31.844-23.468-36.188-49.624-3.498-20.936-1.188-46.186 6.468-71.058 15.656-50.812 47.688-84.936 79.688-84.936a43.4 43.4 0 0 1 12.842 1.936z m-11.028 108.12c5.656-18.374 7.562-37.186 5.156-51.498-2-12.032-6-15.688-6.688-15.876a0.614 0.614 0 0 0-0.282-0.062c-7.688 0-27.844 18.876-38.938 54.876-5.656 18.404-7.562 37.186-5.156 51.528 2 12.032 6 15.656 6.688 15.876a0.68 0.68 0 0 0 0.282 0.032c7.688-0.002 27.844-18.878 38.938-54.876z" fill="#965353" p-id="11706"></path><path d="M789.334 473.656c-11.312-52.67-40.938-104.824-88.09-154.978-51.154-54.42-79.966-118.058-85.624-189.15-4.282-53.608 6.906-91.668 7-91.996L634.12 0.018 596.402 10.8c-103.136 29.466-181.476 77.214-232.788 141.962-40.03 50.466-64.154 111.792-72.03 182.854-0.218-0.282-0.406-0.562-0.594-0.828-4.812-6.938-9.812-14.11-14.906-20.438l-22.094-27.53-14.062 32.388c-26.124 60.124-37.498 118.934-33.81 174.822 3.344 50.686 18.874 97.964 46.184 140.558 28.968 45.186 70.498 83.4 120.06 110.588 46.278 25.376 98.214 39.876 146.152 40.844 2.312 0.032 4.656 0.094 7 0.094 84.106 0 203.63-66.5 250.068-173.9 19.284-44.592 23.94-91.232 13.752-138.558z" fill="#F6BB42" p-id="11707"></path><path d="M617.964 516.466c-59.374-70.374-85.292-140.276-85.542-140.962l-10.968-30.264-23.594 21.92c-63.31 58.888-105.778 115.042-126.152 166.916-18.032 45.794-19.376 88.858-4.032 127.98 14.344 36.56 43.874 69.464 85.372 95.058 16.218 10 31.156 16.968 40.812 21.062 18.656 7.844 22.876 7.844 25.124 7.844l3.876 0.032 3.594-1.376c39.17-14.532 108.168-63.906 126.73-134.434 12.062-45.87-0.126-92.118-35.22-133.776z" fill="#FFCE54" p-id="11708"></path></svg>